<svg
  width="24"
  height="24"
  viewBox="0 0 24 24"
  fill="none"
  xmlns="http://www.w3.org/2000/svg"
>
<g opacity="0.3">
<path d="M12 12L9 18.0001L12 24L15 18.0001L12 12Z" fill="white" />
<path d="M15 6.00004L12 12L15 18.0001L18 12L15 6.00004Z" fill="white" />
<path d="M9 6.00004L6 12L9 18.0001L12 12L9 6.00004Z" fill="white" />
<path d="M18 0L15 6.00004L18 12L21 6.00007L18 0Z" fill="white" />
<path
      d="M13.5 2.99997H10.5L9 6.00004L12 12L15 6.00004L13.5 2.99997Z"
      fill="white"
    />
<path d="M6 0L3 6.00007L6 12L9 6.00004L6 0Z" fill="white" />
<path d="M21 6.00007L24 0H18L21 6.00007Z" fill="white" />
<path d="M3 6.00007L6 0H0L3 6.00007Z" fill="white" />
</g>
</svg>
