<svg
  width="24"
  height="24"
  viewBox="0 0 24 24"
  fill="none"
  xmlns="http://www.w3.org/2000/svg"
>
<path opacity="0.8" d="M12 12L9 18.0001L12 24L15 18.0001L12 12Z" fill="black" />
<path
    opacity="0.6"
    d="M15 6.00004L12 12L15 18L18 12L15 6.00004Z"
    fill="black"
  />
<path opacity="0.6" d="M9 6.00004L6 12L9 18L12 12L9 6.00004Z" fill="black" />
<path opacity="0.45" d="M18 0L15 6.00007L18 12L21 6.00007L18 0Z" fill="black" />
<path
    opacity="0.45"
    d="M13.5 2.99997H10.5L9 6.00007L12 12L15 6.00007L13.5 2.99997Z"
    fill="black"
  />
<path opacity="0.45" d="M6 0L3 6.00007L6 12L9 6.00007L6 0Z" fill="black" />
<path opacity="0.3" d="M21 5.99993L24 0H18L21 5.99993Z" fill="black" />
<path opacity="0.3" d="M3 5.99993L6 0H0L3 5.99993Z" fill="black" />
</svg>
