<svg width="24" height="24" fill="none" xmlns="http://www.w3.org/2000/svg"><path
    opacity=".8"
    d="M12 12L9 18.0001L12 24L15 18.0001L12 12Z"
    fill="#000"
  /><path
    opacity=".6"
    d="M15 6.00004 12 12 15 18 18 12 15 6.00004zM9 6.00004 6 12 9 18 12 12 9 6.00004z"
    fill="#000"
  /><path
    opacity=".45"
    d="M18 0 15 6.00007 18 12 21 6.00007 18 0zM13.5 2.99997H10.5L9 6.00007 12 12 15 6.00007 13.5 2.99997zM6 0 3 6.00007 6 12 9 6.00007 6 0z"
    fill="#000"
  /><path
    opacity=".3"
    d="M21 5.99993 24 0H18L21 5.99993zM3 5.99993 6 0H0L3 5.99993z"
    fill="#000"
  /></svg>
